#!OML:ASF I:\Random Stuff\random\construction\7_22_03\Session 2\subj1.ASF
:FULLY-SPECIFIED
:DEGREES
663
root 3.95388 17.7601 -11.9563 40.6199 -11.0871 -9.38816
lowerback 39.6838 -4.38089 -2.25549
upperback 11.8281 -6.71723 -4.8453
thorax -6.37118 -3.07513 -1.37843
lowerneck -22.7051 -2.2867 -6.04432
upperneck 30.1359 -0.531944 -1.23767
head 14.1698 -1.12714 0.426582
rclavicle 6.36111e-014 6.44062e-014
rhumerus -18.028 31.4056 -59.4807
rradius 128.442
rwrist 4.47477
rhand -49.4914 24.0078
rfingers 7.12502
rthumb -22.1009 -4.74912
lclavicle 6.36111e-014 6.44062e-014
lhumerus 51.7233 -11.068 -13.5877
lradius 125.882
lwrist 86.2415
lhand -20.7573 -478.729
lfingers 7.12502
lthumb -174.391 -328.635
rfemur -61.2722 -5.72959 37.3996
rtibia 32.8217
rfoot -12.2648 9.59382
rtoes -57.4627
lfemur -55.7099 12.4364 2.04781
ltibia 39.0011
lfoot -16.6661 5.57808
ltoes -61.2798
664
root 3.95324 17.7616 -11.9496 40.4995 -11.1067 -9.30963
lowerback 39.7861 -4.43954 -2.21687
upperback 11.8089 -6.77022 -4.78559
thorax -6.4213 -3.0988 -1.30948
lowerneck -22.8571 -2.19861 -5.89958
upperneck 30.2004 -0.37967 -1.44445
head 14.2261 -1.07846 0.344861
rclavicle -1.27222e-014 -3.57812e-015
rhumerus -17.8722 31.445 -59.6042
rradius 128.529
rwrist 4.59073
rhand -49.1065 23.5831
rfingers 7.12502
rthumb -21.7313 -5.21711
lclavicle -1.27222e-014 -3.57812e-015
lhumerus 51.5571 -9.91113 -13.9099
lradius 124.897
lwrist 85.8863
lhand -18.387 -479.517
lfingers 7.12502
lthumb -172.103 -329.35
rfemur -61.1889 -5.84255 37.3415
rtibia 32.874
rfoot -12.3233 9.62127
rtoes -57.5775
lfemur -55.6176 12.4127 1.92933
ltibia 39.0212
lfoot -16.6527 5.52519
ltoes -61.3796
665
root 3.95141 17.7596 -11.9477 40.493 -11.1526 -9.26815
lowerback 39.7366 -4.49461 -2.26592
upperback 11.7931 -6.84935 -4.759
thorax -6.41602 -3.1369 -1.22779
lowerneck -23.046 -2.02462 -5.5327
upperneck 30.246 -0.155398 -1.75553
head 14.279 -0.989186 0.19631
rclavicle 5.08889e-014 -7.15625e-015
rhumerus -17.6211 31.5854 -59.7487
rradius 128.584
rwrist 4.58143
rhand -48.5304 23.5222
rfingers 7.12502
rthumb -21.178 -5.34098
lclavicle 5.08889e-014 -7.15625e-015
lhumerus 51.2796 -8.95806 -14.4122
lradius 124.361
lwrist 86.4865
lhand -19.2346 -479.327
lfingers 7.12502
lthumb -172.921 -329.189
rfemur -61.2241 -5.87698 37.3363
rtibia 32.9371
rfoot -12.3769 9.6446
rtoes -57.6502
lfemur -55.6576 12.5413 1.78647
ltibia 39.0724
lfoot -16.5833 5.42099
ltoes -61.4313
666
root 3.95153 17.7598 -11.9427 40.4083 -11.241 -9.25079
lowerback 39.7531 -4.52758 -2.29637
upperback 11.756 -6.90231 -4.75125
thorax -6.45903 -3.1611 -1.18112
lowerneck -23.1178 -1.83441 -5.18929
upperneck 30.2652 0.0703919 -2.00975
head 14.2966 -0.893041 0.076106
rclavicle 9.22361e-014 3.49861e-014
rhumerus -17.4223 31.8261 -59.9163
rradius 128.589
rwrist 4.68219
rhand -48.1576 23.4633
rfingers 7.12502
rthumb -20.8198 -5.43963
lclavicle 9.22361e-014 3.49861e-014
lhumerus 51.2143 -8.14631 -14.943
lradius 124.031
lwrist 88.0151
lhand -22.6557 -478.466
lfingers 7.12502
lthumb -176.224 -328.412
rfemur -61.1482 -5.86203 37.2482
rtibia 33.0073
rfoot -12.4236 9.63534
rtoes -57.6255
lfemur -55.5657 12.5917 1.70652
ltibia 39.1312
lfoot -16.5814 5.35839
ltoes -61.3806
667
root 3.95203 17.7575 -11.9416 40.3792 -11.3279 -9.21114
lowerback 39.6613 -4.45765 -2.24299
upperback 11.6938 -6.78962 -4.62866
thorax -6.48583 -3.11279 -1.1239
lowerneck -23.033 -1.83701 -5.23932
upperneck 30.2847 0.0911939 -2.04317
head 14.2877 -0.894793 0.0753843
rclavicle -3.49861e-014 1.59028e-014
rhumerus -17.447 31.9332 -59.9371
rradius 128.606
rwrist 4.95359
rhand -48.2421 23.0412
rfingers 7.12502
rthumb -20.901 -5.85281
lclavicle -3.49861e-014 1.59028e-014
lhumerus 51.4882 -7.50287 -15.2324
lradius 123.468
lwrist 89.2525
lhand -24.621 -477.954
lfingers 7.12502
lthumb -178.122 -327.926
rfemur -61.1602 -5.85242 37.167
rtibia 33.0778
rfoot -12.48 9.64316
rtoes -57.6444
lfemur -55.5413 12.5821 1.6445
ltibia 39.1769
lfoot -16.5614 5.37119
ltoes -61.3146
668
root 3.95055 17.7575 -11.9436 40.3541 -11.4291 -9.15949
lowerback 39.5521 -4.31473 -2.1683
upperback 11.6459 -6.57601 -4.45055
thorax -6.48443 -3.02038 -1.05962
lowerneck -22.9844 -1.97967 -5.47541
upperneck 30.337 -0.0351919 -1.99816
head 14.3054 -0.968559 0.1102
rclavicle 9.54166e-015 3.02153e-014
rhumerus -17.6022 31.8495 -59.8198
rradius 128.75
rwrist 5.15796
rhand -48.276 22.3366
rfingers 7.12502
rthumb -20.9336 -6.55378
lclavicle 9.54166e-015 3.02153e-014
lhumerus 51.986 -6.7968 -15.3287
lradius 122.664
lwrist 90.1168
lhand -24.8334 -477.778
lfingers 7.12502
lthumb -178.328 -327.751
rfemur -61.1643 -5.81052 37.0677
rtibia 33.1298
rfoot -12.5354 9.63121
rtoes -57.725
lfemur -55.5081 12.5971 1.5648
ltibia 39.187
lfoot -16.5807 5.35723
ltoes -61.183
669
root 3.94928 17.7589 -11.9476 40.3211 -11.5 -9.08451
lowerback 39.4602 -4.26367 -2.14261
upperback 11.6439 -6.49305 -4.34163
thorax -6.44443 -2.9869 -0.99431
lowerneck -23.2434 -1.97459 -5.39643
upperneck 30.4751 0.0109323 -2.12881
head 14.4222 -0.963354 0.0487422
rclavicle 3.49861e-014 5.04913e-014
rhumerus -17.511 31.8613 -59.6768
rradius 128.909
rwrist 5.24289
rhand -48.2175 21.5534
rfingers 7.12502
rthumb -20.8774 -7.34319
lclavicle 3.49861e-014 5.04913e-014
lhumerus 52.1379 -6.13749 -15.4406
lradius 122.051
lwrist 90.7416
lhand -25.0065 -477.772
lfingers 7.12502
lthumb -178.495 -327.746
rfemur -61.1702 -5.72355 36.8896
rtibia 33.1745
rfoot -12.519 9.53444
rtoes -57.7407
lfemur -55.5061 12.6105 1.43036
ltibia 39.1785
lfoot -16.6068 5.44231
ltoes -61.3669
670
root 3.94757 17.7582 -11.9535 40.3216 -11.5346 -9.04893
lowerback 39.3425 -4.24954 -2.09962
upperback 11.6236 -6.44977 -4.25216
thorax -6.42164 -2.97058 -0.942981
lowerneck -23.4926 -1.89543 -5.15782
upperneck 30.6075 0.141938 -2.38912
head 14.5333 -0.923002 -0.0770435
rclavicle -6.36111e-015 -8.34896e-015
rhumerus -17.3393 31.9608 -59.5418
rradius 129.078
rwrist 5.08734
rhand -47.7698 20.5033
rfingers 7.12502
rthumb -20.4472 -8.44009
lclavicle -6.36111e-015 -8.34896e-015
lhumerus 52.1891 -5.59715 -15.4838
lradius 121.509
lwrist 91.2448
lhand -25.3533 -477.638
lfingers 7.12502
lthumb -178.83 -327.615
rfemur -61.196 -5.61162 36.756
rtibia 33.1997
rfoot -12.4685 9.43372
rtoes -57.6601
lfemur -55.5336 12.6579 1.33432
ltibia 39.1529
lfoot -16.5373 5.594
ltoes -61.6825
671
root 3.94678 17.7576 -11.9609 40.3364 -11.5232 -9.04367
lowerback 39.229 -4.19073 -1.97655
upperback 11.535 -6.32012 -4.08216
thorax -6.47219 -2.91413 -0.877156
lowerneck -23.4246 -1.87686 -5.12227
upperneck 30.6045 0.207395 -2.55896
head 14.5181 -0.915062 -0.139522
rclavicle -1.27222e-014 -1.39149e-014
rhumerus -17.3596 31.9984 -59.3346
rradius 129.343
rwrist 4.70634
rhand -46.9324 19.2944
rfingers 7.12502
rthumb -19.6423 -9.7333
lclavicle -1.27222e-014 -1.39149e-014
lhumerus 52.4969 -5.17408 -15.3341
lradius 120.782
lwrist 91.6456
lhand -25.7587 -477.445
lfingers 7.12502
lthumb -179.221 -327.424
rfemur -61.2136 -5.51041 36.6837
rtibia 33.2044
rfoot -12.4496 9.30552
rtoes -57.6854
lfemur -55.5407 12.6591 1.37029
ltibia 39.1129
lfoot -16.5485 5.5057
ltoes -61.439
672
root 3.94888 17.7595 -11.9691 40.3105 -11.5189 -8.99311
lowerback 39.1714 -4.1393 -1.91014
upperback 11.4599 -6.22158 -3.93173
thorax -6.52307 -2.87141 -0.789621
lowerneck -23.4165 -1.83583 -5.15802
upperneck 30.5867 0.248384 -2.47439
head 14.5071 -0.889716 -0.0908196
rclavicle 1.24042e-013 8.34896e-015
rhumerus -17.2515 32.0158 -59.0877
rradius 129.464
rwrist 4.53239
rhand -46.4979 18.836
rfingers 7.12502
rthumb -19.2245 -10.2338
lclavicle 1.24042e-013 8.34896e-015
lhumerus 52.7694 -4.79772 -15.3207
lradius 119.965
lwrist 91.6897
lhand -25.6983 -477.948
lfingers 7.12502
lthumb -179.163 -327.926
rfemur -61.2221 -5.501 36.6138
rtibia 33.1985
rfoot -12.4372 9.25339
rtoes -57.7676
lfemur -55.5162 12.5665 1.39254
ltibia 39.0653
lfoot -16.6322 5.4211
ltoes -61.1688
673
root 3.95303 17.7633 -11.9777 40.2323 -11.5643 -8.8803
lowerback 39.1562 -4.15089 -1.98572
upperback 11.4392 -6.25702 -3.88284
thorax -6.52812 -2.88941 -0.68631
lowerneck -23.6109 -1.71503 -5.03431
upperneck 30.6281 0.346224 -2.36276
head 14.5633 -0.821773 -0.0497812
rclavicle -5.725e-014 4.05521e-014
rhumerus -16.8797 32.1597 -58.8994
rradius 129.421
rwrist 4.6187
rhand -46.4689 18.77
rfingers 7.12502
rthumb -19.1967 -10.3026
lclavicle -5.725e-014 4.05521e-014
lhumerus 52.6846 -4.41801 -15.5241
lradius 119.295
lwrist 91.3945
lhand -24.9817 -478.84
lfingers 7.12502
lthumb -178.471 -328.815
rfemur -61.2059 -5.50572 36.4252
rtibia 33.1846
rfoot -12.3896 9.24018
rtoes -57.7537
lfemur -55.4543 12.3881 1.3351
ltibia 39.0142
lfoot -16.6632 5.5716
ltoes -61.2246
674
root 3.95619 17.7666 -11.9893 40.1266 -11.5747 -8.80764
lowerback 39.1638 -4.16333 -2.00143
upperback 11.4097 -6.27142 -3.81502
thorax -6.5532 -2.89728 -0.600091
lowerneck -23.8125 -1.59539 -4.84026
upperneck 30.7587 0.490174 -2.46001
head 14.6633 -0.758476 -0.0984123
rclavicle 9.54166e-015 4.09496e-014
rhumerus -16.599 32.3039 -58.7445
rradius 129.343
rwrist 4.7782
rhand -46.3083 18.7918
rfingers 7.12502
rthumb -19.0422 -10.2961
lclavicle 9.54166e-015 4.09496e-014
lhumerus 52.6097 -4.09574 -15.6347
lradius 118.758
lwrist 91.0879
lhand -24.875 -478.795
lfingers 7.12502
lthumb -178.368 -328.769
rfemur -61.1438 -5.48254 36.2588
rtibia 33.1631
rfoot -12.3624 9.17664
rtoes -57.7401
lfemur -55.3786 12.2567 1.30269
ltibia 38.9562
lfoot -16.6575 5.67078
ltoes -61.3013
675
root 3.95767 17.7684 -12.0052 40.0555 -11.5323 -8.78168
lowerback 39.1336 -4.16957 -1.92993
upperback 11.3736 -6.24459 -3.72626
thorax -6.57907 -2.88622 -0.553082
lowerneck -24.0337 -1.4927 -4.62024
upperneck 30.8964 0.621684 -2.61552
head 14.7727 -0.705723 -0.178056
rclavicle 3.49861e-014 -1.51076e-014
rhumerus -16.3033 32.3499 -58.5674
rradius 129.182
rwrist 4.91629
rhand -46.2025 18.8051
rfingers 7.12502
rthumb -18.9404 -10.2927
lclavicle 3.49861e-014 -1.51076e-014
lhumerus 52.7309 -3.85529 -15.7271
lradius 118.168
lwrist 91.1316
lhand -25.9398 -477.85
lfingers 7.12502
lthumb -179.396 -327.829
rfemur -61.104 -5.41755 36.1498
rtibia 33.132
rfoot -12.3076 9.06812
rtoes -57.6848
lfemur -55.3741 12.2496 1.26654
ltibia 38.9001
lfoot -16.5815 5.67517
ltoes -61.4362
676
root 3.95873 17.7695 -12.0237 40.0089 -11.5055 -8.7518
lowerback 39.0899 -4.14317 -1.88392
upperback 11.3324 -6.19017 -3.65707
thorax -6.60615 -2.86214 -0.524513
lowerneck -24.1871 -1.39625 -4.35287
upperneck 30.9537 0.706562 -2.742
head 14.8312 -0.65979 -0.261319
rclavicle -3.18055e-014 9.93923e-015
rhumerus -16.039 32.2749 -58.3535
rradius 129.05
rwrist 4.90906
rhand -46.1784 18.7318
rfingers 7.12502
rthumb -18.9173 -10.3683
lclavicle -3.18055e-014 9.93923e-015
lhumerus 53.0365 -3.67598 -15.8951
lradius 117.429
lwrist 91.5688
lhand -26.9485 -477.064
lfingers 7.12502
lthumb -180.37 -327.043
rfemur -61.1035 -5.37404 36.0815
rtibia 33.0916
rfoot -12.2133 9.02713
rtoes -57.5871
lfemur -55.4002 12.2358 1.24464
ltibia 38.8625
lfoot -16.4869 5.69168
ltoes -61.5066
677
root 3.96079 17.7701 -12.0448 39.9198 -11.4927 -8.71678
lowerback 39.0836 -4.10564 -1.86102
upperback 11.2944 -6.13292 -3.59971
thorax -6.64089 -2.83634 -0.496254
lowerneck -24.2925 -1.30539 -4.15073
upperneck 31.0193 0.788028 -2.81609
head 14.8832 -0.615348 -0.312319
rclavicle 1.90833e-014 1.35174e-014
rhumerus -15.8694 32.1775 -58.1604
rradius 128.98
rwrist 4.83569
rhand -46.0814 18.5772
rfingers 7.12502
rthumb -18.824 -10.5319
lclavicle 1.90833e-014 1.35174e-014
lhumerus 53.3697 -3.56536 -16.1496
lradius 116.744
lwrist 91.8917
lhand -27.4354 -476.821
lfingers 7.12502
lthumb -180.841 -326.799
rfemur -61.0847 -5.42374 36.0856
rtibia 33.0462
rfoot -12.1295 9.09717
rtoes -57.5104
lfemur -55.3758 12.1431 1.27033
ltibia 38.8326
lfoot -16.4492 5.73647
ltoes -61.5609
